<svg fill="#ffffff" xmlns="http://www.w3.org/2000/svg"  viewBox="0 0 50 50" width="20px" height="20px"><path fill="none" stroke="#ffffff" stroke-linecap="round" stroke-linejoin="round" stroke-miterlimit="10" stroke-width="2" d="M34.846 18.857L6.6 46.922M34.928 18.834l-9.205-5.314c0 0-16.769-9.683-17.755-10.252C6.982 2.699 6 3.043 6 4.233c0 1.982 0 20.674 0 20.674s0 20.201 0 21.093c0 .892.702 1.276 1.558.782.856-.495 18.164-10.488 18.164-10.488l9.204-5.314c0 0 7.81-4.509 8.848-5.108 1.038-.6.938-1.422.062-1.894C42.962 23.506 34.928 18.834 34.928 18.834zM34.846 30.929L6.764 3.055"/></svg>